<svg xmlns="http://www.w3.org/2000/svg" xmlns:xlink="http://www.w3.org/1999/xlink" viewBox="0,0,256,256" width="64px" height="64px" fill-rule="nonzero"><g fill="#ffffff" fill-rule="nonzero" stroke="none" stroke-width="1" stroke-linecap="butt" stroke-linejoin="miter" stroke-miterlimit="10" stroke-dasharray="" stroke-dashoffset="0" font-family="none" font-weight="none" font-size="none" text-anchor="none" style="mix-blend-mode: normal"><g transform="scale(2,2)"><path d="M56,21.90039c-12.7,0 -23,10.3 -23,23c0,1.7 1.3,3 3,3h5.19922h0.20117c11.5,0 23.19961,0 31.59961,-7.5v0.09961c0.4,-0.4 0.79961,-0.69961 1.09961,-1.09961c1.1,-1.2 3.00117,-1.40078 4.20117,-0.30078c1.3,1.1 1.39922,3.10039 0.19922,4.40039l-1.40039,1.40039c-1.3,1.3 -0.79961,3.49922 0.90039,4.19922c1,0.4 2.09922,0.60117 3.19922,0.70117c1.5,0.2 2.70117,1.4 2.70117,3v6.79883c0.1,10.5 -7.9,19.60039 -18.5,20.40039c-11.6,0.8 -21.30039,-8.40039 -21.40039,-19.90039c0,-1.6 -1.20078,-2.99961 -2.80078,-3.09961c-1.7,-0.1 -3.19922,1.3 -3.19922,3c0,14.3 11.7,26 26,26c13.9,0 25.3,-10.89922 26,-24.69922v-0.30078v-14v-3v-1c0,-7.2 -5.40039,-13.10039 -12.40039,-13.90039l-0.40039,-0.59961c-2.9,-4.1 -7.69922,-6.59961 -12.69922,-6.59961zM64,91c-16.4,0 -31.59922,8.89961 -39.69922,23.09961c-0.8,1.4 -0.30039,3.29961 1.09961,4.09961c0.5,0.3 1,0.40039 1.5,0.40039c1,0 2.09961,-0.5 2.59961,-1.5c7.1,-12.4 20.3,-20.09961 34.5,-20.09961c14.2,0 27.4,7.69961 34.5,20.09961c0.8,1.4 2.69961,1.89961 4.09961,1.09961c1.4,-0.8 1.89961,-2.69961 1.09961,-4.09961c-8.1,-14.2 -23.29922,-23.09961 -39.69922,-23.09961z"></path></g></g></svg>