<svg xmlns="http://www.w3.org/2000/svg" xmlns:xlink="http://www.w3.org/1999/xlink" viewBox="0,0,256,256" width="64px" height="64px" fill-rule="nonzero"><g fill="#ffffff" fill-rule="nonzero" stroke="none" stroke-width="1" stroke-linecap="butt" stroke-linejoin="miter" stroke-miterlimit="10" stroke-dasharray="" stroke-dashoffset="0" font-family="none" font-weight="none" font-size="none" text-anchor="none" style="mix-blend-mode: normal"><g transform="scale(2,2)"><path d="M15.22,127h17.45h76c3.73,0 7.28,-1.6 9.75,-4.4c2.47,-2.8 3.62,-6.52 3.15,-10.22l-2.47,-19.75c-0.21,-1.64 -1.71,-2.81 -3.35,-2.6c-1.64,0.21 -2.81,1.7 -2.6,3.35l2.47,19.75c0.25,1.99 -0.37,4 -1.7,5.5c-1.33,1.5 -3.24,2.37 -5.25,2.37h-65.06c1.63,-2.54 2.35,-5.58 1.97,-8.61l-2.48,-19.75c-0.21,-1.64 -1.71,-2.81 -3.35,-2.6c-1.64,0.21 -2.81,1.7 -2.6,3.35l2.47,19.75c0.25,1.99 -0.37,4 -1.7,5.5c-1.33,1.5 -3.24,2.36 -5.25,2.36h-17.45c-2.02,0 -3.88,-0.83 -5.23,-2.34c-1.35,-1.51 -1.96,-3.45 -1.73,-5.46l9.35,-81c0.11,-0.95 0.76,-1.15 1.29,-1.15c0,0 0,0 0.01,0c0.53,0 1.18,0.2 1.29,1.16l4.22,38.23c0.73,6.6 6.28,11.57 12.92,11.57h24.66v0.61c0,7.17 5.83,13 13,13c7.17,0 13,-5.83 13,-13v-0.61h25.21c3.69,0 7.22,-1.58 9.68,-4.33c2.46,-2.75 3.64,-6.43 3.24,-10.1l-3.97,-36.04c-0.41,-3.74 -3.41,-6.49 -7.18,-6.55h-31.03c-0.52,-8.9 -7.91,-15.99 -16.95,-15.99c-9.04,0 -16.43,7.09 -16.95,16h-31.13c-0.23,0 -0.45,0.03 -0.67,0.07c-3.52,0.28 -6.19,2.85 -6.6,6.44l-9.35,81c-0.42,3.68 0.75,7.37 3.21,10.14c2.46,2.77 6.01,4.35 9.71,4.35zM82,82.62c0,3.86 -3.14,7 -7,7c-3.86,0 -7,-3.14 -7,-7v-0.61h14zM67,15c5.73,0 10.44,4.4 10.95,10h-21.9c0.51,-5.6 5.22,-10 10.95,-10zM114.93,31c0.42,0.01 1.15,0.17 1.27,1.21l3.97,36.04c0.22,2 -0.4,3.94 -1.74,5.44c-1.35,1.5 -3.2,2.33 -5.21,2.33h-75.89c-3.58,0 -6.57,-2.68 -6.96,-6.23l-4.22,-38.23c-0.02,-0.19 -0.05,-0.37 -0.08,-0.55z"></path></g></g></svg>