<svg xmlns="http://www.w3.org/2000/svg" xmlns:xlink="http://www.w3.org/1999/xlink" viewBox="0,0,256,256" width="64px" height="64px" fill-rule="nonzero"><g fill="#ffffff" fill-rule="nonzero" stroke="none" stroke-width="1" stroke-linecap="butt" stroke-linejoin="miter" stroke-miterlimit="10" stroke-dasharray="" stroke-dashoffset="0" font-family="none" font-weight="none" font-size="none" text-anchor="none" style="mix-blend-mode: normal"><g transform="scale(2,2)"><path d="M59,1c-7.2,0 -13,5.8 -13,13v20c0,3.9 -3.1,7 -7,7h-18.19922c-2.1,0 -3.80078,-1.70078 -3.80078,-3.80078c0,-1.1 0.50078,-2.19844 1.30078,-2.89844l18.59961,-16c1.3,-1.1 1.39883,-3.00117 0.29883,-4.20117c-1.1,-1.3 -2.99922,-1.39883 -4.19922,-0.29883l-18.59961,15.89844c-2.2,1.9 -3.40039,4.6 -3.40039,7.5c0,5.4 4.40078,9.80078 9.80078,9.80078h18.19922c7.2,0 13,-5.8 13,-13v-20c0,-3.9 3.1,-7 7,-7h39c3.9,0 7,3.1 7,7v69v1v28.09961l-7,8.90039l-7.90039,-7.90039c-1.2,-1.2 -3.09922,-1.2 -4.19922,0l-7.90039,7.90039l-7.90039,-7.90039c-1.2,-1.2 -3.09922,-1.2 -4.19922,0l-7.90039,7.90039l-7.90039,-7.90039c-1.2,-1.2 -3.09922,-1.2 -4.19922,0l-7.90039,7.90039l-7.90039,-7.90039c-1.2,-1.2 -3.09922,-1.2 -4.19922,0l-7.70117,7.70117c-0.1,0.1 -0.3,0.19922 -0.5,0.19922c-0.4,0 -0.69922,-0.29922 -0.69922,-0.69922v-53.10156c0,-1.7 -1.3,-3 -3,-3c-1.7,0 -3,1.3 -3,3v53.10156c0,3.7 2.99922,6.69922 6.69922,6.69922c1.8,0 3.50117,-0.7 4.70117,-2l5.59961,-5.59961l5.80078,5.79883c1.1,1.1 2.59922,1.80078 4.19922,1.80078c1.6,0 3.09922,-0.60078 4.19922,-1.80078l5.80078,-5.79883l5.80078,5.79883c1.1,1.1 2.59922,1.80078 4.19922,1.80078c1.6,0 3.09922,-0.60078 4.19922,-1.80078l5.80078,-5.79883l5.80078,5.79883c1.1,1.1 2.59922,1.80078 4.19922,1.80078c1.6,0 3.09922,-0.60078 4.19922,-1.80078l5.80078,-5.79883l5.80078,5.79883c1.1,1.1 2.59922,1.80078 4.19922,1.80078c1.6,0 3.09922,-0.60078 4.19922,-1.80078c0.1,-0.1 0.20117,-0.19883 0.20117,-0.29883l7.90039,-10c0.4,-0.5 0.59961,-1.20039 0.59961,-1.90039v-29v-1v-69c0.1,-7.2 -5.70039,-13 -12.90039,-13zM48.31055,71.83789c-0.26506,0.0043 -0.53555,0.025 -0.81055,0.0625c-2.5,0.3 -4.5,3.00039 -8.5,8.40039c-0.6,0.8 -1.09922,1.49883 -1.69922,2.29883c-1,1.3 -0.70039,3.20117 0.59961,4.20117c1.4,1 3.29883,0.69844 4.29883,-0.60156c0.6,-0.8 1.10117,-1.59844 1.70117,-2.39844c1.5,-2 3.59922,-5 4.69922,-6c1.2,0.3 3.1,2.69844 4.5,4.39844c2.7,3.3 5.69961,7.10156 10.09961,7.10156h0.80078c3.1,-0.3 5.40039,-2.50039 7.40039,-4.40039c1.5,-1.5 2.99961,-2.90078 4.09961,-2.80078c0.3,0 0.79922,0.20039 1.19922,0.40039c1.5,0.7 3.3,0.09922 4,-1.30078c0.7,-1.4 0.10117,-3.3 -1.29883,-4c-1.1,-0.6 -2.20078,-0.9 -3.30078,-1c-3.9,-0.4 -6.70039,2.30039 -8.90039,4.40039c-1.4,1.3 -2.79844,2.70078 -3.89844,2.80078c-1.6,0.2 -3.80156,-2.60039 -5.60156,-4.90039c-2.53125,-3.1875 -5.41272,-6.72656 -9.38867,-6.66211zM90,83c-1.65685,0 -3,1.34315 -3,3c0,1.65685 1.34315,3 3,3c1.65685,0 3,-1.34315 3,-3c0,-1.65685 -1.34315,-3 -3,-3z"></path></g></g></svg>